# xmcd
#
# Track frame offsets:
#	150
#	20555
#	43437
#	67775
#	85462
#	106187
#	130142
#	151745
#	174570
#	194127
#	216125
#	246137
#
# Disc length: 3547 seconds
#
# Revision: 1
# Processed by: cddbd v1.5.1PL0 Copyright (c) Steve Scherf et al.
# Submitted via: CDex 1.50Beta5
#
DISCID=a60dd90c
DTITLE=鈴木トオル - 約束
DYEAR=1995
DGENRE=
TTITLE0=手紙
TTITLE1=約束
TTITLE2=祈り
TTITLE3=Happy new year!,a
TTITLE4=雨音を君が聴く日は…
TTITLE5=風
TTITLE6=君の背中
TTITLE7=伝説のある場所
TTITLE8=青のレストラン
TTITLE9=模型飛行機
TTITLE10=恋人になれたら
TTITLE11=END OF THE WORLD,THE
EXTD=
EXTT0=
EXTT1=
EXTT2=
EXTT3=
EXTT4=
EXTT5=
EXTT6=
EXTT7=
EXTT8=
EXTT9=
EXTT10=
EXTT11=
PLAYORDER=
